<svg xmlns="http://www.w3.org/2000/svg" width="15" height="15" fill="none" viewBox="0 0 15 15">
  <path fill="#34303E" d="M7.5 8.75a.625.625 0 1 0 0-1.25.625.625 0 0 0 0 1.25Zm3.125 0a.625.625 0 1 0 0-1.25.625.625 0 0 0 0 1.25ZM7.5 11.25a.626.626 0 1 0 0-1.251.626.626 0 0 0 0 1.251Zm3.125 0a.625.625 0 1 0 0-1.25.625.625 0 0 0 0 1.25Zm-6.25-2.5a.625.625 0 1 0 0-1.25.625.625 0 0 0 0 1.25Zm7.5-6.25h-.625v-.625a.625.625 0 1 0-1.25 0V2.5H5v-.625a.625.625 0 0 0-1.25 0V2.5h-.625A1.875 1.875 0 0 0 1.25 4.375v7.5a1.875 1.875 0 0 0 1.875 1.875h8.75a1.875 1.875 0 0 0 1.875-1.875v-7.5A1.875 1.875 0 0 0 11.875 2.5Zm.625 9.375a.624.624 0 0 1-.625.625h-8.75a.625.625 0 0 1-.625-.625V6.25h10v5.625ZM12.5 5h-10v-.625a.625.625 0 0 1 .625-.625h8.75a.625.625 0 0 1 .625.625V5Zm-8.125 6.25a.626.626 0 1 0 0-1.251.626.626 0 0 0 0 1.251Z"/>
</svg>
