<svg xmlns="http://www.w3.org/2000/svg" width="15" height="15" fill="none" viewBox="0 0 15 15">
  <path fill="#34303E" d="M12.5 5.588a.82.82 0 0 0-.037-.17v-.056a.67.67 0 0 0-.12-.175l-3.75-3.75a.669.669 0 0 0-.174-.118h-.063a.688.688 0 0 0-.194-.069H4.375A1.875 1.875 0 0 0 2.5 3.125v8.75a1.875 1.875 0 0 0 1.875 1.875h6.25a1.875 1.875 0 0 0 1.875-1.875V5.588ZM8.75 3.38 10.369 5h-.994a.625.625 0 0 1-.625-.625v-.994Zm2.5 8.494a.624.624 0 0 1-.625.625h-6.25a.625.625 0 0 1-.625-.625v-8.75a.625.625 0 0 1 .625-.625H7.5v1.875A1.875 1.875 0 0 0 9.375 6.25h1.875v5.625ZM8.306 8.931l-.181.188V7.5a.625.625 0 0 0-1.25 0v1.619l-.181-.188a.628.628 0 1 0-.888.888l1.25 1.25c.06.057.13.101.207.131a.587.587 0 0 0 .474 0 .624.624 0 0 0 .207-.131l1.25-1.25a.628.628 0 1 0-.888-.888Z"/>
</svg>
