<svg xmlns="http://www.w3.org/2000/svg" width="15" height="15" fill="none" viewBox="0 0 15 15">
  <path fill="#34303E" d="M12.5 5.112V1.875a.625.625 0 1 0-1.25 0v3.237a1.875 1.875 0 0 0 0 3.525v4.488a.624.624 0 1 0 1.25 0V8.637a1.875 1.875 0 0 0 0-3.525ZM11.875 7.5a.625.625 0 1 1 0-1.25.625.625 0 0 1 0 1.25Zm-3.75 1.363V1.875a.625.625 0 0 0-1.25 0v6.988a1.875 1.875 0 0 0 0 3.524v.738a.625.625 0 1 0 1.25 0v-.738a1.875 1.875 0 0 0 0-3.524ZM7.5 11.25a.626.626 0 1 1 0-1.251.626.626 0 0 1 0 1.251ZM3.75 3.862V1.875a.625.625 0 0 0-1.25 0v1.987a1.875 1.875 0 0 0 0 3.526v5.737a.625.625 0 1 0 1.25 0V7.388a1.875 1.875 0 0 0 0-3.526ZM3.125 6.25a.625.625 0 1 1 0-1.25.625.625 0 0 1 0 1.25Z"/>
</svg>
