<svg xmlns="http://www.w3.org/2000/svg" width="15" height="15" fill="none" viewBox="0 0 15 15">
  <path fill="#34303E" d="M13.75 10h-1.363c.073-.2.111-.412.113-.625V6.25a1.875 1.875 0 0 0-1.875-1.875h-3.75A1.875 1.875 0 0 0 5 6.25v3.125c.002.213.04.425.112.625h-.737a.625.625 0 0 1-.625-.625v-6.25A1.875 1.875 0 0 0 1.875 1.25H1.25a.625.625 0 0 0 0 1.25h.625a.625.625 0 0 1 .625.625v6.25a1.875 1.875 0 0 0 1.388 1.8 1.875 1.875 0 1 0 3.5.075h2.1a1.875 1.875 0 1 0 3.524 0h.738a.624.624 0 1 0 0-1.25Zm-8.125 2.5a.626.626 0 1 1 0-1.251.626.626 0 0 1 0 1.251Zm1.25-2.5a.625.625 0 0 1-.625-.625V6.25a.625.625 0 0 1 .625-.625h3.75a.625.625 0 0 1 .625.625v3.125a.625.625 0 0 1-.625.625h-3.75Zm4.375 2.5a.625.625 0 1 1 0-1.25.625.625 0 0 1 0 1.25Z"/>
</svg>
