<svg xmlns="http://www.w3.org/2000/svg" width="12" height="15" fill="none" viewBox="0 0 12 15">
  <path fill="#34303E" d="M6 8.25a1.117 1.117 0 0 0-.75 1.957v1.043a.75.75 0 1 0 1.5 0v-1.043A1.118 1.118 0 0 0 6 8.25Zm3.75-3v-1.5a3.75 3.75 0 0 0-7.5 0v1.5A2.25 2.25 0 0 0 0 7.5v5.25A2.25 2.25 0 0 0 2.25 15h7.5A2.25 2.25 0 0 0 12 12.75V7.5a2.25 2.25 0 0 0-2.25-2.25Zm-6-1.5a2.25 2.25 0 1 1 4.5 0v1.5h-4.5v-1.5Zm6.75 9a.75.75 0 0 1-.75.75h-7.5a.75.75 0 0 1-.75-.75V7.5a.75.75 0 0 1 .75-.75h7.5a.75.75 0 0 1 .75.75v5.25Z"/>
</svg>
