<svg xmlns="http://www.w3.org/2000/svg" width="15" height="15" fill="none" viewBox="0 0 15 15">
  <path fill="#34303E" d="M13.75 6.044a.625.625 0 0 0-.537-.419l-3.557-.519-1.594-3.231a.625.625 0 0 0-1.124 0L5.343 5.1l-3.557.525a.625.625 0 0 0-.506.425.625.625 0 0 0 .157.625l2.58 2.5-.624 3.55a.625.625 0 0 0 .906.669l3.2-1.669 3.188 1.675c.087.05.186.075.287.075a.625.625 0 0 0 .585-.395.624.624 0 0 0 .034-.349l-.625-3.55 2.581-2.5a.625.625 0 0 0 .2-.637Zm-3.844 2.5a.625.625 0 0 0-.181.556l.45 2.619-2.35-1.25a.624.624 0 0 0-.588 0l-2.35 1.25.45-2.619a.625.625 0 0 0-.18-.556L3.28 6.669l2.631-.381a.625.625 0 0 0 .476-.344L7.5 3.563 8.675 5.95a.625.625 0 0 0 .475.344l2.631.381-1.875 1.869Z"/>
</svg>
