<svg xmlns="http://www.w3.org/2000/svg" width="15" height="15" fill="none" viewBox="0 0 15 15">
  <path fill="#34303E" d="M6.25 11.25a.625.625 0 0 0 .625-.625v-3.75a.625.625 0 0 0-1.25 0v3.75a.625.625 0 0 0 .625.625Zm6.25-7.5H10v-.625A1.875 1.875 0 0 0 8.125 1.25h-1.25A1.875 1.875 0 0 0 5 3.125v.625H2.5A.625.625 0 0 0 2.5 5h.625v6.875A1.875 1.875 0 0 0 5 13.75h5a1.875 1.875 0 0 0 1.875-1.875V5h.625a.625.625 0 1 0 0-1.25Zm-6.25-.625a.625.625 0 0 1 .625-.625h1.25a.625.625 0 0 1 .625.625v.625h-2.5v-.625Zm4.375 8.75A.624.624 0 0 1 10 12.5H5a.625.625 0 0 1-.625-.625V5h6.25v6.875ZM8.75 11.25a.625.625 0 0 0 .625-.625v-3.75a.625.625 0 0 0-1.25 0v3.75a.625.625 0 0 0 .625.625Z"/>
</svg>
