<svg xmlns="http://www.w3.org/2000/svg" width="15" height="15" fill="none" viewBox="0 0 15 15">
  <path fill="#34303E" d="M14.353 8.64a.582.582 0 0 0-.018-.11l-1.44-3.835a1.873 1.873 0 0 0 .855-1.57.625.625 0 1 0-1.25 0 .625.625 0 0 1-1.176.295 1.808 1.808 0 0 0-1.611-.92H8.125v-.625a.625.625 0 0 0-1.25 0V2.5H5.287a1.808 1.808 0 0 0-1.61.92.625.625 0 0 1-1.177-.295.625.625 0 0 0-1.25 0 1.872 1.872 0 0 0 .855 1.57L.665 8.53a.592.592 0 0 0-.018.11.593.593 0 0 0-.022.11l.002.017.002.024a2.496 2.496 0 0 0 4.992 0l.002-.024.002-.017a.593.593 0 0 0-.022-.11.592.592 0 0 0-.018-.11L4.143 4.69c.265-.169.483-.402.634-.678a.573.573 0 0 1 .51-.262h1.588v8.75H5a.625.625 0 1 0 0 1.25h5a.624.624 0 1 0 0-1.25H8.125V3.75h1.588a.573.573 0 0 1 .51.262c.151.276.37.51.634.678L9.415 8.53a.592.592 0 0 0-.018.11.593.593 0 0 0-.022.11l.002.017.002.024a2.496 2.496 0 0 0 4.992 0l.002-.024.002-.017a.59.59 0 0 0-.022-.11ZM3.125 5.534l.973 2.59H2.152l.973-2.59Zm1.077 3.84A1.264 1.264 0 0 1 3.125 10a1.25 1.25 0 0 1-1.082-.625h2.159Zm7.673-3.84.973 2.59h-1.946l.973-2.59Zm0 4.465a1.25 1.25 0 0 1-1.082-.625h2.159a1.265 1.265 0 0 1-1.077.625Z"/>
</svg>
