<svg xmlns="http://www.w3.org/2000/svg" width="15" height="15" fill="none" viewBox="0 0 15 15">
  <path fill="#34303E" d="M13.75 4.37v7.5c0 .5-.19.98-.55 1.33-.35.35-.82.55-1.32.55H3.13c-.5 0-.98-.2-1.33-.55-.35-.35-.55-.83-.55-1.33v-7.5A1.879 1.879 0 0 1 3.13 2.5h.62v-.63c0-.16.07-.32.19-.44.11-.12.27-.18.44-.18.16 0 .32.06.44.18s.18.28.18.44v.63h5v-.63c0-.16.07-.32.19-.44.11-.12.27-.18.44-.18.16 0 .32.06.44.18.08.08.14.19.17.3-.24.26-.36.6-.36.95v1.07H3.13c-.17 0-.33.06-.44.18-.12.12-.19.28-.19.44V5h8.38v1.25H8.46c-.23-.18-.5-.28-.79-.3-.35-.02-.69.08-.96.3H2.5v5.62c0 .17.07.33.19.44.11.12.27.19.44.19h2.65l.83.83a1.417 1.417 0 0 0 1.55.31 1.423 1.423 0 0 0 .88-1.14h2.84c.16 0 .32-.07.44-.19.12-.11.18-.27.18-.44v-1.18c.13-.09.25-.2.36-.31.57-.57.89-1.34.89-2.15V4.37ZM12.3 2.14c-.14 0-.28.06-.37.16-.11.1-.16.23-.16.38v5.55c0 .29-.11.56-.32.76-.2.2-.47.31-.75.31H6.41l1.57-1.56c.09-.1.14-.23.14-.37 0-.13-.06-.26-.15-.36a.533.533 0 0 0-.36-.17.567.567 0 0 0-.37.12l-2.48 2.5c-.05.05-.09.11-.12.18-.05.13-.05.27 0 .4.03.07.07.13.12.18l2.48 2.48c.1.1.24.16.38.16.07 0 .14-.02.2-.04.07-.03.13-.07.18-.12.05-.05.09-.11.11-.17.03-.07.05-.14.05-.21 0-.07-.02-.14-.05-.21a.451.451 0 0 0-.11-.17l-1.57-1.56h4.29c.57 0 1.11-.23 1.51-.63.41-.4.63-.95.63-1.52V2.68c0-.07-.01-.15-.04-.21a.567.567 0 0 0-.12-.18.524.524 0 0 0-.19-.11.464.464 0 0 0-.21-.04Zm-8.49 8.22a.597.597 0 0 0 .13.7c.11.12.27.19.44.19.04 0 .09-.01.13-.02l-.38-.38c-.13-.13-.24-.29-.31-.47-.01 0-.01-.01-.01-.02Zm.42-1.63.75-.76a.558.558 0 0 0-.16-.29.59.59 0 0 0-.32-.17.632.632 0 0 0-.36.04c-.12.04-.21.12-.28.23a.599.599 0 0 0 .08.78c.08.09.18.14.29.17Zm5.84-.32h.63c.04 0 .09-.02.12-.05.04-.04.06-.08.06-.13v-.68a.632.632 0 0 0-.49 0c-.12.04-.21.12-.28.23-.07.1-.11.22-.11.34 0 .1.03.2.07.29Z"/>
</svg>
