<svg xmlns="http://www.w3.org/2000/svg" width="15" height="15" fill="none" viewBox="0 0 15 15">
  <path fill="#34303E" d="M5 10.313a.626.626 0 1 0 0 1.25.626.626 0 0 0 0-1.25ZM7.5 1.25c-2.5 0-5 .856-5 2.5v7.5c0 1.644 2.5 2.5 5 2.5s5-.856 5-2.5v-7.5c0-1.644-2.5-2.5-5-2.5Zm3.75 10c0 .444-1.425 1.25-3.75 1.25s-3.75-.806-3.75-1.25V9.206A8.226 8.226 0 0 0 7.5 10a8.225 8.225 0 0 0 3.75-.794v2.044Zm0-3.75c0 .444-1.425 1.25-3.75 1.25S3.75 7.944 3.75 7.5V5.456a8.225 8.225 0 0 0 3.75.794 8.225 8.225 0 0 0 3.75-.794V7.5ZM7.5 5c-2.325 0-3.75-.806-3.75-1.25 0-.444 1.425-1.25 3.75-1.25s3.75.806 3.75 1.25C11.25 4.194 9.825 5 7.5 5ZM5 6.563a.625.625 0 1 0 0 1.25.625.625 0 0 0 0-1.25Z"/>
</svg>
