<svg xmlns="http://www.w3.org/2000/svg" width="15" height="15" fill="none" viewBox="0 0 15 15">
  <path fill="#34303E" d="M12.806 4.7a.12.12 0 0 1 0-.05.107.107 0 0 1 0-.044V4.55l-.037-.094a.3.3 0 0 0-.056-.069l-.057-.05h-.031l-2.463-1.556-2.325-1.437a.531.531 0 0 0-.18-.094h-.05a.513.513 0 0 0-.17 0h-.062a.706.706 0 0 0-.206.081L2.5 4.238l-.056.043-.056.05-.063.044-.031.037-.038.094V4.6a.431.431 0 0 0 0 .125v5.456a.625.625 0 0 0 .294.532l4.688 2.9.093.037h.05a.53.53 0 0 0 .325 0h.05l.094-.037 4.65-2.857a.624.624 0 0 0 .294-.531V4.769s.012-.044.012-.069ZM7.5 2.606l1.113.688-3.494 2.162L4 4.77l3.5-2.163Zm-.625 9.375-3.438-2.1V5.887l3.438 2.125v3.97ZM7.5 6.912l-1.194-.718L9.8 4.025l1.2.744-3.5 2.143Zm4.063 2.95L8.124 12V8.012l3.438-2.125v3.976Z"/>
</svg>
