<svg xmlns="http://www.w3.org/2000/svg" width="15" height="15" fill="none" viewBox="0 0 15 15">
  <path fill="#34303E" d="M3.125 11.25h2.65a.625.625 0 0 0 .444-.181l4.325-4.332L12.319 5a.626.626 0 0 0 0-.888l-2.65-2.68a.625.625 0 0 0-.888 0L7.02 3.2 2.68 7.531a.625.625 0 0 0-.181.444v2.65a.625.625 0 0 0 .625.625Zm6.1-8.494 1.769 1.769-.888.887-1.768-1.768.887-.888ZM3.75 8.231l3.706-3.706 1.769 1.769L5.519 10H3.75V8.231Zm9.375 4.269H1.875a.625.625 0 1 0 0 1.25h11.25a.624.624 0 1 0 0-1.25Z"/>
</svg>
