<svg xmlns="http://www.w3.org/2000/svg" width="15" height="15" fill="none" viewBox="0 0 15 15">
  <path fill="#34303E" d="M13.7 7.25C12.438 4.319 10.063 2.5 7.5 2.5S2.562 4.319 1.3 7.25a.625.625 0 0 0 0 .5c1.262 2.931 3.638 4.75 6.2 4.75 2.563 0 4.938-1.819 6.2-4.75a.625.625 0 0 0 0-.5Zm-6.2 4c-1.981 0-3.856-1.431-4.938-3.75C3.644 5.181 5.52 3.75 7.5 3.75c1.981 0 3.856 1.431 4.938 3.75-1.082 2.319-2.957 3.75-4.938 3.75ZM7.5 5a2.5 2.5 0 1 0 0 5 2.5 2.5 0 0 0 0-5Zm0 3.75a1.25 1.25 0 1 1 0-2.5 1.25 1.25 0 0 1 0 2.5Z"/>
</svg>
