<svg xmlns="http://www.w3.org/2000/svg" width="15" height="15" fill="none" viewBox="0 0 15 15">
  <path fill="#000" d="M7.056 9.556a.987.987 0 0 0-.075.094.475.475 0 0 0-.056.112.4.4 0 0 0-.037.113.85.85 0 0 0 0 .125.525.525 0 0 0 .05.238.562.562 0 0 0 .337.337.587.587 0 0 0 .475 0 .563.563 0 0 0 .338-.337.625.625 0 0 0 .037-.238.625.625 0 0 0-1.069-.444ZM7.5 1.25a6.25 6.25 0 1 0 0 12.5 6.25 6.25 0 0 0 0-12.5Zm0 11.25a5 5 0 1 1 0-9.999 5 5 0 0 1 0 9.999Zm0-8.125a1.875 1.875 0 0 0-1.625.938.625.625 0 1 0 1.081.625.625.625 0 0 1 .986-.13.625.625 0 0 1-.442 1.067.625.625 0 0 0-.625.625v.625a.625.625 0 0 0 1.25 0v-.113A1.875 1.875 0 0 0 7.5 4.375Z"/>
</svg>
