<svg xmlns="http://www.w3.org/2000/svg" width="15" height="15" fill="none" viewBox="0 0 15 15">
  <path fill="#34303E" d="M12.5 5.588a.82.82 0 0 0-.037-.17v-.056a.668.668 0 0 0-.12-.175l-3.75-3.75a.669.669 0 0 0-.174-.118h-.056l-.2-.069H4.374A1.875 1.875 0 0 0 2.5 3.125v8.75a1.875 1.875 0 0 0 1.875 1.875h6.25a1.875 1.875 0 0 0 1.875-1.875V5.588ZM8.75 3.38 10.369 5H8.75V3.381Zm2.5 8.494a.624.624 0 0 1-.625.625h-6.25a.625.625 0 0 1-.625-.625v-8.75a.625.625 0 0 1 .625-.625H7.5v3.125a.625.625 0 0 0 .625.625h3.125v5.625Z"/>
  <path fill="#34303E" d="M6.375 8.5a.375.375 0 0 0 .375-.412l.697-.698h.115l.403.403v.02a.375.375 0 0 0 .75 0v-.02l.91-.918A.375.375 0 1 0 9.25 6.5a.193.193 0 0 0 0 .037l-.902.903h-.04L7.874 7a.375.375 0 0 0-.75 0l-.75.75a.375.375 0 0 0 0 .75Zm3.375 1H5.5V5.25a.25.25 0 0 0-.5 0v4.5a.25.25 0 0 0 .25.25h4.5a.25.25 0 0 0 0-.5Z"/>
</svg>
